<?xml version="1.0" standalone="no"?>
<!DOCTYPE svg PUBLIC "-//W3C//DTD SVG 20010904//EN"
 "http://www.w3.org/TR/2001/REC-SVG-20010904/DTD/svg10.dtd">
<svg version="1.0" xmlns="http://www.w3.org/2000/svg"
 width="240.000000pt" height="240.000000pt" viewBox="0 0 240.000000 240.000000"
 preserveAspectRatio="xMidYMid meet">
<metadata>
Created by potrace 1.11, written by Peter Selinger 2001-2013
</metadata>
<g transform="translate(0.000000,240.000000) scale(0.100000,-0.100000)"
fill="#000000" stroke="none">
<path d="M1875 2228 c-27 -4 -70 -9 -95 -12 -164 -19 -319 -37 -340 -41 -23
-3 -51 -6 -175 -21 -22 -2 -56 -6 -75 -9 -19 -3 -55 -7 -80 -10 -25 -3 -61 -8
-80 -10 -19 -3 -57 -7 -85 -10 -27 -3 -66 -7 -85 -10 -19 -2 -60 -7 -90 -10
-30 -4 -65 -8 -78 -10 -13 -2 -55 -7 -93 -11 l-69 -7 -1 -406 c0 -223 0 -536
1 -695 1 -295 -3 -323 -36 -295 -28 23 -115 46 -173 47 -252 1 -401 -238 -270
-434 82 -122 269 -167 411 -100 73 35 114 76 147 146 l25 55 1 438 c0 398 2
439 17 448 12 7 24 3 44 -14 27 -23 27 -26 28 -135 0 -110 1 -112 23 -112 23
0 23 2 23 110 0 149 -19 181 -110 192 l-25 3 0 143 c0 119 2 145 15 152 8 4
47 11 85 15 39 4 78 9 87 10 9 2 41 6 70 9 29 4 69 8 88 11 19 2 58 7 85 10
28 3 61 8 75 10 14 2 48 7 75 10 28 3 66 7 85 10 50 7 108 14 165 20 28 4 61
8 75 10 14 2 53 7 87 10 34 4 101 12 148 19 76 11 85 11 89 -3 2 -9 5 -215 5
-457 1 -351 -2 -443 -12 -447 -7 -3 -30 4 -51 14 -21 10 -55 22 -75 25 -20 4
-45 8 -56 10 -36 7 -139 -17 -182 -42 -219 -127 -193 -415 46 -505 45 -17 71
-20 136 -17 130 8 223 66 271 172 22 49 23 63 26 329 l3 277 29 25 c35 30 42
31 51 8 3 -10 23 -44 43 -75 30 -47 42 -58 65 -58 l27 0 -60 93 -59 92 52 53
51 52 -30 0 c-23 0 -43 -14 -91 -61 -34 -34 -65 -59 -70 -56 -5 3 -8 242 -8
531 l0 526 -25 -2 c-14 -1 -47 -6 -75 -10z m-8 -273 l-1 -55 -36 -1 c-19 0
-44 -2 -55 -4 -11 -2 -42 -7 -70 -10 -27 -3 -66 -7 -85 -10 -66 -8 -115 -14
-285 -35 -93 -11 -186 -22 -205 -25 -102 -13 -202 -25 -260 -30 -36 -4 -83
-10 -105 -14 -22 -4 -60 -7 -85 -7 l-44 1 -1 47 c-1 58 -15 51 163 73 23 3 61
7 85 10 23 3 62 8 87 11 25 3 60 7 78 10 18 2 54 6 80 9 26 3 81 10 122 15 41
5 98 12 125 15 28 3 84 9 125 15 112 15 138 18 215 26 39 3 72 8 74 10 2 2 21
4 41 4 l37 0 0 -55z"/>
<path d="M233 1323 c-35 -99 -98 -269 -109 -296 -6 -16 -2 -18 21 -15 24 2 31
11 43 46 l14 43 96 -3 95 -3 15 -42 c11 -35 18 -43 38 -43 32 0 31 6 -7 95 -5
11 -22 58 -39 105 -17 47 -33 92 -37 100 -3 8 -7 17 -8 20 -16 64 -28 80 -58
80 -31 0 -33 -2 -64 -87z m101 -61 c16 -48 31 -95 34 -104 4 -16 -4 -18 -72
-18 -42 0 -76 2 -76 4 0 14 73 206 79 206 3 0 19 -40 35 -88z"/>
<path d="M2250 1380 c0 -25 4 -30 24 -30 26 0 36 14 28 43 -3 10 -14 17 -28
17 -20 0 -24 -5 -24 -30z"/>
<path d="M940 1303 c-8 -3 -19 -12 -23 -19 -11 -19 -27 -18 -27 1 0 8 -9 15
-20 15 -22 0 -22 1 -22 -145 1 -152 0 -145 25 -145 21 0 22 3 20 82 -4 118 3
146 38 167 34 21 70 17 96 -11 14 -16 17 -38 18 -126 0 -103 1 -107 23 -110
22 -3 22 -2 22 101 0 57 -5 118 -11 136 -17 48 -85 74 -139 54z"/>
<path d="M1219 1296 c-90 -51 -86 -237 6 -280 67 -32 152 -10 180 47 19 38 19
37 -10 37 -14 0 -25 -4 -25 -10 0 -39 -84 -65 -130 -40 -23 12 -47 79 -32 89
6 3 56 6 111 6 61 -1 102 3 104 10 8 20 -23 102 -48 125 -31 29 -116 38 -156
16z m128 -48 c11 -13 23 -33 26 -45 5 -22 3 -23 -78 -23 -46 0 -87 4 -90 10
-7 12 20 66 37 73 34 14 85 6 105 -15z"/>
<path d="M1553 1293 c-16 -10 -23 -12 -23 -4 0 7 -10 11 -22 9 -23 -3 -23 -5
-23 -145 0 -142 0 -143 23 -143 21 0 22 3 22 108 0 126 11 152 64 152 49 0 50
-1 55 -232 1 -22 6 -28 24 -28 22 0 22 2 20 103 -3 123 7 151 55 155 57 6 62
-7 62 -140 0 -118 0 -119 22 -116 22 3 23 7 24 108 0 117 -7 156 -33 176 -28
21 -90 17 -114 -7 -12 -12 -24 -17 -28 -12 -21 33 -92 42 -128 16z"/>
<path d="M2254 1155 c0 -142 0 -145 22 -145 21 0 21 3 21 145 0 142 0 145 -22
145 -21 0 -21 -3 -21 -145z"/>
</g>
</svg>
